{
    "asset" : {
        "generator" : "Khronos glTF Blender I/O v3.2.43",
        "version" : "2.0"
    },
    "scene" : 0,
    "scenes" : [
        {
            "name" : "Scene",
            "nodes" : [
                0,
                1
            ]
        }
    ],
    "nodes" : [
        {
            "mesh" : 0,
            "name" : "mannequin_joints"
        },
        {
            "mesh" : 1,
            "name" : "mannequin_body"
        }
    ],
    "materials" : [
        {
            "doubleSided" : true,
            "name" : "joint_mat",
            "pbrMetallicRoughness" : {
                "baseColorFactor" : [
                    0,
                    0,
                    0,
                    1
                ],
                "metallicFactor" : 0
            }
        },
        {
            "doubleSided" : true,
            "name" : "body_mat",
            "pbrMetallicRoughness" : {
                "baseColorFactor" : [
                    0.06301002949476242,
                    0.26225075125694275,
                    0.5209956765174866,
                    1
                ],
                "metallicFactor" : 0,
                "roughnessFactor" : 0
            }
        }
    ],
    "meshes" : [
        {
            "name" : "joints",
            "primitives" : [
                {
                    "attributes" : {
                        "POSITION" : 0,
                        "NORMAL" : 1,
                        "TEXCOORD_0" : 2
                    },
                    "indices" : 3,
                    "material" : 0
                }
            ]
        },
        {
            "name" : "body",
            "primitives" : [
                {
                    "attributes" : {
                        "POSITION" : 4,
                        "NORMAL" : 5,
                        "TEXCOORD_0" : 6
                    },
                    "indices" : 7,
                    "material" : 1
                }
            ]
        }
    ],
    "accessors" : [
        {
            "bufferView" : 0,
            "componentType" : 5126,
            "count" : 1270,
            "max" : [
                0.7468727231025696,
                1.5622267723083496,
                0.1390393078327179
            ],
            "min" : [
                -0.7468727231025696,
                0.0008395910263061523,
                -0.02720273658633232
            ],
            "type" : "VEC3"
        },
        {
            "bufferView" : 1,
            "componentType" : 5126,
            "count" : 1270,
            "type" : "VEC3"
        },
        {
            "bufferView" : 2,
            "componentType" : 5126,
            "count" : 1270,
            "type" : "VEC2"
        },
        {
            "bufferView" : 3,
            "componentType" : 5123,
            "count" : 4632,
            "type" : "SCALAR"
        },
        {
            "bufferView" : 4,
            "componentType" : 5126,
            "count" : 5738,
            "max" : [
                0.7596621513366699,
                1.7083147764205933,
                0.16091510653495789
            ],
            "min" : [
                -0.7596621513366699,
                -0.0038742627948522568,
                -0.0686359852552414
            ],
            "type" : "VEC3"
        },
        {
            "bufferView" : 5,
            "componentType" : 5126,
            "count" : 5738,
            "type" : "VEC3"
        },
        {
            "bufferView" : 6,
            "componentType" : 5126,
            "count" : 5738,
            "type" : "VEC2"
        },
        {
            "bufferView" : 7,
            "componentType" : 5123,
            "count" : 24276,
            "type" : "SCALAR"
        }
    ],
    "bufferViews" : [
        {
            "buffer" : 0,
            "byteLength" : 15240,
            "byteOffset" : 0
        },
        {
            "buffer" : 0,
            "byteLength" : 15240,
            "byteOffset" : 15240
        },
        {
            "buffer" : 0,
            "byteLength" : 10160,
            "byteOffset" : 30480
        },
        {
            "buffer" : 0,
            "byteLength" : 9264,
            "byteOffset" : 40640
        },
        {
            "buffer" : 0,
            "byteLength" : 68856,
            "byteOffset" : 49904
        },
        {
            "buffer" : 0,
            "byteLength" : 68856,
            "byteOffset" : 118760
        },
        {
            "buffer" : 0,
            "byteLength" : 45904,
            "byteOffset" : 187616
        },
        {
            "buffer" : 0,
            "byteLength" : 48552,
            "byteOffset" : 233520
        }
    ],
    "buffers" : [
        {
            "byteLength" : 282072,
            "uri" : "data:application/octet-stream;base64,"
        }
    ]
}
